<svg width="280" height="280" viewBox="0 0 280 280" fill="none" xmlns="http://www.w3.org/2000/svg">
<path d="M140 250C200.751 250 250 200.751 250 140C250 79.2487 200.751 30 140 30C79.2487 30 30 79.2487 30 140C30 200.751 79.2487 250 140 250Z" fill="#26A17B"/>
<path fill-rule="evenodd" clip-rule="evenodd" d="M153.214 149.51V149.496C152.458 149.551 148.56 149.785 139.863 149.785C132.919 149.785 128.031 149.579 126.312 149.496V149.517C99.5821 148.341 79.6309 143.687 79.6309 138.118C79.6309 132.556 99.5821 127.902 126.312 126.706V144.883C128.058 145.007 133.063 145.303 139.98 145.303C148.278 145.303 152.437 144.959 153.214 144.89V126.719C179.889 127.909 199.792 132.563 199.792 138.118C199.792 143.687 179.889 148.328 153.214 149.51ZM153.214 124.829V108.563H190.435V83.7576H89.0909V108.563H126.312V124.822C96.0621 126.211 73.3127 132.206 73.3127 139.383C73.3127 146.561 96.0621 152.549 126.312 153.944V206.071H153.214V153.931C183.416 152.542 206.11 146.554 206.11 139.383C206.11 132.213 183.416 126.224 153.214 124.829Z" fill="white"/>
<g filter="url(#filter0_d_11138_84665)">
<path fill-rule="evenodd" clip-rule="evenodd" d="M78.3308 238.267C84.4892 242.14 92 237.371 92 230.096V218C92 209.163 99.1634 202 108 202H172C180.837 202 188 209.163 188 218V230.096C188 237.371 195.511 242.14 201.669 238.267C234.308 217.741 256 181.404 256 140C256 75.935 204.065 24 140 24C75.935 24 24 75.935 24 140C24 181.404 45.6918 217.741 78.3308 238.267ZM268 140C268 210.692 210.692 268 140 268C69.3076 268 12 210.692 12 140C12 69.3076 69.3076 12 140 12C210.692 12 268 69.3076 268 140Z" fill="#5E64CA"/>
</g>
<path d="M132.264 250L143.811 233.613L132.491 218H139.912L147.277 228.621L154.618 218H162.039L150.734 233.592L162.266 250H154.754L147.265 238.72L139.776 250H132.264Z" fill="white"/>
<path d="M119.363 250L130.91 233.613L119.59 218H127.011L134.375 228.621L137.833 233.592L134.364 238.72L126.875 250H119.363Z" fill="white"/>
<defs>
<filter id="filter0_d_11138_84665" x="0" y="0" width="280" height="280" filterUnits="userSpaceOnUse" color-interpolation-filters="sRGB">
<feFlood flood-opacity="0" result="BackgroundImageFix"/>
<feColorMatrix in="SourceAlpha" type="matrix" values="0 0 0 0 0 0 0 0 0 0 0 0 0 0 0 0 0 0 127 0" result="hardAlpha"/>
<feOffset/>
<feGaussianBlur stdDeviation="6"/>
<feComposite in2="hardAlpha" operator="out"/>
<feColorMatrix type="matrix" values="0 0 0 0 0 0 0 0 0 0 0 0 0 0 0 0 0 0 0.4 0"/>
<feBlend mode="normal" in2="BackgroundImageFix" result="effect1_dropShadow_11138_84665"/>
<feBlend mode="normal" in="SourceGraphic" in2="effect1_dropShadow_11138_84665" result="shape"/>
</filter>
</defs>
</svg>
