<svg width="280" height="280" viewBox="0 0 280 280" fill="none" xmlns="http://www.w3.org/2000/svg">
<g clip-path="url(#clip0_11138_84700)">
<path d="M245 140C245 160.767 238.842 181.068 227.304 198.335C215.767 215.602 199.368 229.06 180.182 237.007C160.996 244.955 139.884 247.034 119.516 242.982C99.1476 238.931 80.4384 228.931 65.7538 214.246C51.0693 199.562 41.069 180.852 37.0176 160.484C32.9661 140.116 35.0455 119.004 42.9927 99.8182C50.9399 80.632 64.398 64.2332 81.6652 52.6957C98.9323 41.1581 119.233 35 140 35C167.848 35 194.555 46.0625 214.246 65.7538C233.938 85.4451 245 112.152 245 140Z" fill="white" stroke="#0052FF" stroke-width="10"/>
<path fill-rule="evenodd" clip-rule="evenodd" d="M108.18 80.23L133.46 87L139.11 65.94L151.75 69.37L146.32 89.56L156.63 92.33L162.07 71.92L174.93 75.36L169.39 95.88C169.39 95.88 190.39 100.53 195.33 117.61C200.27 134.69 184.47 143.66 179.59 144C179.59 144 197.99 154.09 191.67 173.94C185.35 193.79 165.95 197.34 145.54 192.79L140 214.07L127.14 210.63L132.79 189.68L122.59 186.9L116.94 208L104.18 204.57L109.84 183.57L83.8901 176.57L90.4301 162.05C90.4301 162.05 97.7501 164.05 100.52 164.71C103.29 165.37 105.07 162.49 105.85 159.61C106.63 156.73 118.38 109 119.49 105.07C120.6 101.14 120.15 98.07 115.49 96.86C110.83 95.65 104.49 93.76 104.49 93.76L108.18 80.23ZM133.68 143.44L126.68 171.27C126.68 171.27 161.39 183.8 165.83 166.17C170.27 148.54 133.68 143.44 133.68 143.44ZM136.9 130.24L143.77 104.74C143.77 104.74 173.49 110.06 169.83 124.25C166.17 138.44 148.65 133 136.9 130.24Z" fill="#0052FF"/>
</g>
<g filter="url(#filter0_d_11138_84700)">
<path fill-rule="evenodd" clip-rule="evenodd" d="M78.3308 238.267C84.4892 242.14 92 237.371 92 230.096V218C92 209.163 99.1634 202 108 202H172C180.837 202 188 209.163 188 218V230.096C188 237.371 195.511 242.14 201.669 238.267C234.308 217.741 256 181.404 256 140C256 75.935 204.065 24 140 24C75.935 24 24 75.935 24 140C24 181.404 45.6918 217.741 78.3308 238.267ZM268 140C268 210.692 210.692 268 140 268C69.3076 268 12 210.692 12 140C12 69.3076 69.3076 12 140 12C210.692 12 268 69.3076 268 140Z" fill="#5E64CA"/>
</g>
<path d="M132.263 250L143.811 233.613L132.491 218H139.912L147.276 228.621L154.617 218H162.038L150.734 233.592L162.266 250H154.754L147.265 238.72L139.776 250H132.263Z" fill="white"/>
<path d="M119.362 250L130.91 233.613L119.59 218H127.011L134.375 228.621L137.832 233.592L134.364 238.72L126.874 250H119.362Z" fill="white"/>
<defs>
<filter id="filter0_d_11138_84700" x="0" y="0" width="280" height="280" filterUnits="userSpaceOnUse" color-interpolation-filters="sRGB">
<feFlood flood-opacity="0" result="BackgroundImageFix"/>
<feColorMatrix in="SourceAlpha" type="matrix" values="0 0 0 0 0 0 0 0 0 0 0 0 0 0 0 0 0 0 127 0" result="hardAlpha"/>
<feOffset/>
<feGaussianBlur stdDeviation="6"/>
<feComposite in2="hardAlpha" operator="out"/>
<feColorMatrix type="matrix" values="0 0 0 0 0 0 0 0 0 0 0 0 0 0 0 0 0 0 0.4 0"/>
<feBlend mode="normal" in2="BackgroundImageFix" result="effect1_dropShadow_11138_84700"/>
<feBlend mode="normal" in="SourceGraphic" in2="effect1_dropShadow_11138_84700" result="shape"/>
</filter>
<clipPath id="clip0_11138_84700">
<rect width="220" height="220" fill="white" transform="translate(30 30)"/>
</clipPath>
</defs>
</svg>
